<svg xmlns="http://www.w3.org/2000/svg" viewBox="0 0 420 420" role="img" aria-label="LINE QR Code placeholder">
  <rect width="420" height="420" fill="#ffffff"/>
  <rect x="1" y="1" width="418" height="418" fill="none" stroke="#111111" stroke-width="2"/>
  <g fill="#111111">
    <rect x="42" y="42" width="98" height="98"/>
    <rect x="280" y="42" width="98" height="98"/>
    <rect x="42" y="280" width="98" height="98"/>
    <rect x="70" y="70" width="42" height="42" fill="#ffffff"/>
    <rect x="308" y="70" width="42" height="42" fill="#ffffff"/>
    <rect x="70" y="308" width="42" height="42" fill="#ffffff"/>
    <rect x="174" y="54" width="28" height="28"/>
    <rect x="224" y="54" width="28" height="28"/>
    <rect x="168" y="112" width="48" height="26"/>
    <rect x="238" y="112" width="34" height="34"/>
    <rect x="166" y="168" width="26" height="54"/>
    <rect x="214" y="166" width="70" height="28"/>
    <rect x="306" y="172" width="28" height="56"/>
    <rect x="156" y="234" width="58" height="30"/>
    <rect x="240" y="224" width="30" height="78"/>
    <rect x="294" y="256" width="80" height="28"/>
    <rect x="166" y="308" width="28" height="54"/>
    <rect x="216" y="326" width="52" height="28"/>
    <rect x="310" y="318" width="34" height="34"/>
  </g>
  <rect x="118" y="188" width="184" height="56" rx="28" fill="#06c755"/>
  <text x="210" y="224" text-anchor="middle" font-family="Arial, sans-serif" font-size="22" font-weight="700" fill="#ffffff">LINE QR</text>
  <text x="210" y="406" text-anchor="middle" font-family="Arial, sans-serif" font-size="15" fill="#777777">replace with official QR code</text>
</svg>
